<svg width="35.000000" height="35.000000" viewBox="0 0 35 35" fill="none" xmlns="http://www.w3.org/2000/svg" xmlns:xlink="http://www.w3.org/1999/xlink">
	<desc>
			Created with Pixso.
	</desc>
	<defs>
		<clipPath id="clip5_377">
			<rect id="35px/agreement" rx="0.000000" width="34.000000" height="34.000000" transform="translate(0.500000 0.500000)" fill="white" fill-opacity="0"/>
		</clipPath>
	</defs>
	<rect id="35px/agreement" rx="0.000000" width="34.000000" height="34.000000" transform="translate(0.500000 0.500000)" fill="#FFFFFF" fill-opacity="0"/>
	<g clip-path="url(#clip5_377)">
		<path id="Vector" d="M29.16 5.83L29.16 23.33L11.66 23.33L11.66 5.83L29.16 5.83ZM29.16 2.91L11.66 2.91C10.06 2.91 8.75 4.22 8.75 5.83L8.75 23.33C8.75 24.93 10.06 26.25 11.66 26.25L29.16 26.25C30.77 26.25 32.08 24.93 32.08 23.33L32.08 5.83C32.08 4.22 30.77 2.91 29.16 2.91ZM18.18 20.41L13.12 15.31L15.16 13.25L18.18 16.28L25.66 8.75L27.7 10.8L18.18 20.41ZM5.83 8.75L2.91 8.75L2.91 29.16C2.91 30.77 4.22 32.08 5.83 32.08L26.25 32.08L26.25 29.16L5.83 29.16L5.83 8.75Z" fill="#FFFFFF" fill-opacity="1.000000" fill-rule="nonzero"/>
	</g>
</svg>
