<svg width="29.166504" height="29.166626" viewBox="0 0 29.1665 29.1666" fill="none" xmlns="http://www.w3.org/2000/svg" xmlns:xlink="http://www.w3.org/1999/xlink">
	<desc>
			Created with Pixso.
	</desc>
	<defs/>
	<path id="Vector" d="M26.25 2.91L26.25 20.41L8.75 20.41L8.75 2.91L26.25 2.91ZM26.25 0L8.75 0C7.14 0 5.83 1.31 5.83 2.91L5.83 20.41C5.83 22.02 7.14 23.33 8.75 23.33L26.25 23.33C27.85 23.33 29.16 22.02 29.16 20.41L29.16 2.91C29.16 1.31 27.85 0 26.25 0ZM15.26 17.5L10.2 12.39L12.25 10.33L15.26 13.37L22.75 5.83L24.79 7.88L15.26 17.5ZM2.91 5.83L0 5.83L0 26.25C0 27.85 1.31 29.16 2.91 29.16L23.33 29.16L23.33 26.25L2.91 26.25L2.91 5.83Z" fill="#4F8FF0" fill-opacity="1.000000" fill-rule="nonzero"/>
</svg>
