<svg width="20.000000" height="20.000000" viewBox="0 0 20 20" fill="none" xmlns="http://www.w3.org/2000/svg" xmlns:xlink="http://www.w3.org/1999/xlink">
	<desc>
			Created with Pixso.
	</desc>
	<defs>
		<clipPath id="clip156_583">
			<rect id="32px/mail" rx="0.000000" width="19.000000" height="19.000000" transform="translate(0.500000 0.500000)" fill="white" fill-opacity="0"/>
		</clipPath>
	</defs>
	<rect id="32px/mail" rx="0.000000" width="19.000000" height="19.000000" transform="translate(0.500000 0.500000)" fill="#FFFFFF" fill-opacity="0"/>
	<g clip-path="url(#clip156_583)">
		<path id="Vector" d="M3.33 16.66C2.87 16.66 2.48 16.5 2.15 16.17C1.82 15.84 1.66 15.45 1.66 15L1.66 5C1.66 4.54 1.83 4.14 2.15 3.82C2.48 3.49 2.87 3.33 3.33 3.33L16.66 3.33C17.12 3.33 17.51 3.49 17.84 3.82C18.17 4.14 18.33 4.54 18.33 5L18.33 15C18.33 15.45 18.16 15.85 17.84 16.17C17.51 16.5 17.12 16.66 16.66 16.66L3.33 16.66ZM10 10.83L3.33 6.66L3.33 15L16.66 15L16.66 6.66L10 10.83ZM10 9.16L16.66 5L3.33 5L10 9.16ZM3.33 6.66L3.33 5L3.33 15L3.33 6.66Z" fill="#4F8FF0" fill-opacity="1.000000" fill-rule="nonzero"/>
	</g>
</svg>
